# xmcd
#
# Track frame offsets:
#	150
#	11397
#	23084
#	37820
#	54191
#	71973
#	90395
#	103536
#	115633
#	130016
#	146689
#
# Disc length: 2188 seconds
#
# Revision: 1
# Processed by: cddbd v1.4PL0 Copyright (c) Steve Scherf et al.
# Submitted via: audiograbber 1.81.01
#
DISCID=7f088a0b
DTITLE=Gruppo Italiano - I Grandi Successi Originali cd2
DYEAR=1900
DGENRE=Pop
TTITLE0=Ti dirò
TTITLE1=Cuando Calienta el sol
TTITLE2=Santo domingo
TTITLE3=Fotografia
TTITLE4=Sole d'agosto
TTITLE5=Sotto le conchiglie
TTITLE6=Datemi un martello
TTITLE7=Con tè sulla spiaggia
TTITLE8=Cha-cha-cha
TTITLE9=Dammi un sabato mite
TTITLE10=Hallowen
EXTD=
EXTT0=
EXTT1=
EXTT2=
EXTT3=
EXTT4=
EXTT5=
EXTT6=
EXTT7=
EXTT8=
EXTT9=
EXTT10=
PLAYORDER=
